<?xml version="1.0" encoding="UTF-8" standalone="no"?>
<svg
   xmlns:dc="http://purl.org/dc/elements/1.1/"
   xmlns:cc="http://creativecommons.org/ns#"
   xmlns:rdf="http://www.w3.org/1999/02/22-rdf-syntax-ns#"
   xmlns:svg="http://www.w3.org/2000/svg"
   xmlns="http://www.w3.org/2000/svg"
   id="svg4693"
   version="1.1"
   width="20"
   height="20"
   viewBox="0 0 20 20">
  <metadata
     id="metadata4699">
    <rdf:RDF>
      <cc:Work
         rdf:about="">
        <dc:format>image/svg+xml</dc:format>
        <dc:type
           rdf:resource="http://purl.org/dc/dcmitype/StillImage" />
        <dc:title></dc:title>
      </cc:Work>
    </rdf:RDF>
  </metadata>
  <defs
     id="defs4697" />
  <path
     id="path1209-5"
     d="m 10.5,10 a 0.5,0.5 0 0 0 -0.3,0.1 0.5,0.5 0 0 0 0,0 0.5,0.5 0 0 0 0,0 0.5,0.5 0 0 0 0,0 0.5,0.5 0 0 0 -0.1,0.1 0.5,0.5 0 0 0 -0.1,0.4 V 17.5 a 0.5,0.5 0 0 0 0.5,0.5 h 7 a 0.5,0.5 0 0 0 0.5,-0.5 v -7 a 0.5,0.5 0 0 0 -0.5,-0.5 H 10.6 A 0.5,0.5 0 0 0 10.5,10 Z M 11,11 h 6 v 6 h -6 z"/>
  <path
     id="path1209-3-1"
     d="m 6.5,6 a 0.5,0.5 0 0 0 -0.3,0.1 0.5,0.5 0 0 0 0,0 0.5,0.5 0 0 0 0,0 0.5,0.5 0 0 0 0,0 0.5,0.5 0 0 0 -0.1,0.1 0.5,0.5 0 0 0 -0.1,0.4 V 13.5 a 0.5,0.5 0 0 0 0.5,0.5 h 4 a 0.5,0.5 0 1 0 0,-1 H 7 V 7 h 6 v 3.5 a 0.5,0.5 0 1 0 1,0 v -4 a 0.5,0.5 0 0 0 -0.5,-0.5 H 6.6 A 0.5,0.5 0 0 0 6.5,6 Z"/>
  <path
     id="path1209-8-1"
     d="m 2.5,2 a 0.5,0.5 0 0 0 -0.3,0.1 0.5,0.5 0 0 0 0,0 0.5,0.5 0 0 0 0,0 0.5,0.5 0 0 0 0,0 0.5,0.5 0 0 0 0,0 0.5,0.5 0 0 0 0,0 0.5,0.5 0 0 0 0,0 0.5,0.5 0 0 0 -0.1,0.4 V 9.5 a 0.5,0.5 0 0 0 0.5,0.5 h 4 a 0.5,0.5 0 1 0 0,-1 h -3.5 V 3 h 6 v 3.5 a 0.5,0.5 0 1 0 1,0 v -4 A 0.5,0.5 0 0 0 9.5,2 H 2.6 A 0.5,0.5 0 0 0 2.5,2 Z"/>
</svg>
