<?xml version="1.0" encoding="UTF-8" standalone="no"?>
<svg
   xmlns:dc="http://purl.org/dc/elements/1.1/"
   xmlns:cc="http://creativecommons.org/ns#"
   xmlns:rdf="http://www.w3.org/1999/02/22-rdf-syntax-ns#"
   xmlns:svg="http://www.w3.org/2000/svg"
   xmlns="http://www.w3.org/2000/svg"
   viewBox="0 0 20 20"
   height="20"
   width="20"
   version="1.1"
   id="svg4693">
  <metadata
     id="metadata4699">
    <rdf:RDF>
      <cc:Work
         rdf:about="">
        <dc:format>image/svg+xml</dc:format>
        <dc:type
           rdf:resource="http://purl.org/dc/dcmitype/StillImage" />
        <dc:title></dc:title>
      </cc:Work>
    </rdf:RDF>
  </metadata>
  <defs
     id="defs4697" />
  <path
     id="path1155"
     d="M 5.1,0.7 A 0.5,0.5 0 0 0 4.6,1 l -3,9 a 0.5,0.5 0 1 0 0.9,0.3 L 5.1,2.7 7.6,10.3 a 0.5,0.5 0 1 0 0.9,-0.3 l -3,-9 a 0.5,0.5 0 0 0 -0.5,-0.3 z" />
  <path
     id="path1157"
     d="m 2.6,13.2 a 0.5,0.5 0 1 0 0,1 h 3.8 l -4.1,4.1 a 0.5,0.5 0 0 0 0.4,0.9 h 5 a 0.5,0.5 0 1 0 0,-1 H 3.8 L 7.9,14 A 0.5,0.5 0 0 0 7.6,13.2 Z" />
  <path
     id="path1159"
     d="m 3.1,6.7 v 1 h 4 v -1 z" />
  <path
     id="path1163"
     d="m 12.1,7.2 h 6 l -3,7 z" />
</svg>
