<?xml version="1.0" encoding="UTF-8" standalone="no"?>
<svg
   xmlns:dc="http://purl.org/dc/elements/1.1/"
   xmlns:cc="http://creativecommons.org/ns#"
   xmlns:rdf="http://www.w3.org/1999/02/22-rdf-syntax-ns#"
   xmlns:svg="http://www.w3.org/2000/svg"
   xmlns="http://www.w3.org/2000/svg"
   id="svg4693"
   version="1.1"
   width="20"
   height="20"
   viewBox="0 0 20 20">
  <metadata
     id="metadata4699">
    <rdf:RDF>
      <cc:Work
         rdf:about="">
        <dc:format>image/svg+xml</dc:format>
        <dc:type
           rdf:resource="http://purl.org/dc/dcmitype/StillImage" />
        <dc:title></dc:title>
      </cc:Work>
    </rdf:RDF>
  </metadata>
  <defs
     id="defs4697" />
  <path d="m 2.5,2 a 0.5,0.5 0 0 0 -0.3,0.1 0.5,0.5 0 0 0 0,0 0.5,0.5 0 0 0 0,0 0.5,0.5 0 0 0 0,0 0.5,0.5 0 0 0 0,0 0.5,0.5 0 0 0 0,0 0.5,0.5 0 0 0 -0.1,0.1 0.5,0.5 0 0 0 -0.1,0.4 V 17.5 a 0.5,0.5 0 0 0 0.5,0.5 l 15,0 a 0.5,0.5 0 0 0 0.5,-0.5 V 2.5 a 0.5,0.5 0 0 0 -0.5,-0.5 H 2.6 A 0.5,0.5 0 0 0 2.5,2 Z M 3,3 H 17 V 17 L 3,17 Z" />
  <path d="M 9.8,4 A 0.5,0.5 0 0 0 9.4,4.2 L 4.1,9.9 a 0.5,0.5 0 0 0 0,0.7 L 9.4,16.1 a 0.5,0.5 0 0 0 0.7,0 l 5.8,-5.6 a 0.5,0.5 0 0 0 0,-0.7 L 10.2,4.1 A 0.5,0.5 0 0 0 9.8,4 Z M 9.8,5.2 14.9,10.2 9.8,15.1 5.2,10.2 Z" />
</svg>
