<?xml version="1.0" encoding="UTF-8" standalone="no"?>
<svg
   xmlns:dc="http://purl.org/dc/elements/1.1/"
   xmlns:cc="http://creativecommons.org/ns#"
   xmlns:rdf="http://www.w3.org/1999/02/22-rdf-syntax-ns#"
   xmlns:svg="http://www.w3.org/2000/svg"
   xmlns="http://www.w3.org/2000/svg"
   id="svg4693"
   version="1.1"
   width="20"
   height="20"
   viewBox="0 0 20 20">
  <metadata
     id="metadata4699">
    <rdf:RDF>
      <cc:Work
         rdf:about="">
        <dc:format>image/svg+xml</dc:format>
        <dc:type
           rdf:resource="http://purl.org/dc/dcmitype/StillImage" />
        <dc:title></dc:title>
      </cc:Work>
    </rdf:RDF>
  </metadata>
  <defs
     id="defs4697" />
  <path
     id="path1057-0"
     d="m 8.5,5 a 0.5,0.5 0 0 0 -0.3,0.1 0.5,0.5 0 0 0 0,0 0.5,0.5 0 0 0 0,0 0.5,0.5 0 0 0 0,0 0.5,0.5 0 0 0 0,0 A 0.5,0.5 0 0 0 8.1,5.2 0.5,0.5 0 0 0 8,5.6 V 18.5 A 0.5,0.5 0 0 0 8.5,19 h 10 A 0.5,0.5 0 0 0 19,18.5 V 5.5 A 0.5,0.5 0 0 0 18.5,5 H 8.6 a 0.5,0.5 0 0 0 -0.1,0 z M 9,6 h 9 V 18 H 9 Z"/>
  <path
     id="path1057-9-9"
     d="M 1.5,1 A 0.5,0.5 0 0 0 1,1.5 v 13 A 0.5,0.5 0 0 0 1.5,15 h 6.7 a 0.5,0.5 0 1 0 0,-1 H 2 V 2 h 9 v 3.5 a 0.5,0.5 0 1 0 1,0 v -4 A 0.5,0.5 0 0 0 11.5,1 Z"/>
  <path
     id="path1074-2"
     d="m 5.5,10 a 0.5,0.5 0 1 0 0,1 H 14 a 0.5,0.5 0 1 0 0,-1 z"/>
  <path
     id="path1076-5"
     d="M 11.2,7.1 A 0.5,0.5 0 0 0 10.8,8 l 2.5,2.5 -2.5,2.5 a 0.5,0.5 0 1 0 0.7,0.7 l 2.8,-2.8 a 0.5,0.5 0 0 0 0,-0.7 L 11.5,7.3 A 0.5,0.5 0 0 0 11.2,7.1 Z"/>
</svg>
