<?xml version="1.0" encoding="UTF-8" standalone="no"?>
<svg
   xmlns:dc="http://purl.org/dc/elements/1.1/"
   xmlns:cc="http://creativecommons.org/ns#"
   xmlns:rdf="http://www.w3.org/1999/02/22-rdf-syntax-ns#"
   xmlns:svg="http://www.w3.org/2000/svg"
   xmlns="http://www.w3.org/2000/svg"
   id="svg4693"
   version="1.1"
   width="20"
   height="20"
   viewBox="0 0 20 20">
  <metadata
     id="metadata4699">
    <rdf:RDF>
      <cc:Work
         rdf:about="">
        <dc:format>image/svg+xml</dc:format>
        <dc:type
           rdf:resource="http://purl.org/dc/dcmitype/StillImage" />
        <dc:title></dc:title>
      </cc:Work>
    </rdf:RDF>
  </metadata>
  <defs
     id="defs4697" />
  <path
     id="path4285-4"
     d="M 16.7,0.7 A 0.5,0.5 0 0 0 16.3,0.9 L 8.9,12.6 C 8.5,12.5 7.6,12.3 6.1,12.3 5.2,12.3 4.3,12.3 3.4,12.7 2.6,13 1.8,13.5 1.4,14.4 c -0.4,0.9 -0.3,1.7 0.1,2.3 0.5,0.6 1.2,0.8 1.9,1 1.4,0.4 2.9,0.4 2.9,0.4 a 0.5,0.5 0 0 0 0.4,-0.2 L 9.4,13.6 A 0.5,0.5 0 0 0 9.8,13.1 L 17.1,1.5 A 0.5,0.5 0 0 0 16.7,0.7 Z M 6.1,13.3 c 1.2,0 1.7,0.2 2.2,0.3 l -2.3,3.6 c -0.2,0 -1.3,0 -2.4,-0.3 -0.6,-0.2 -1.1,-0.4 -1.4,-0.7 -0.2,-0.3 -0.3,-0.6 0,-1.2 0.3,-0.6 0.8,-1 1.5,-1.2 0.7,-0.2 1.5,-0.3 2.3,-0.3 z" />
  <path
     id="path4285-9-0"
     d="M 3.3,0.7 A 0.5,0.5 0 0 0 2.9,1.5 L 10.3,13.1 a 0.5,0.5 0 0 0 0,0 0.5,0.5 0 0 0 0.4,0.5 l 2.7,4.3 a 0.5,0.5 0 0 0 0.4,0.2 c 0,0 1.5,0 2.9,-0.4 0.7,-0.2 1.4,-0.5 1.9,-1 0.5,-0.6 0.6,-1.4 0.1,-2.3 -0.4,-0.9 -1.2,-1.4 -2.1,-1.7 -0.9,-0.3 -1.8,-0.4 -2.7,-0.4 -1.5,0 -2.4,0.2 -2.8,0.3 L 3.7,0.9 A 0.5,0.5 0 0 0 3.3,0.7 Z M 13.9,13.3 c 0.8,0 1.6,0.1 2.3,0.3 0.7,0.2 1.2,0.6 1.5,1.2 0.3,0.6 0.2,0.9 0,1.2 -0.2,0.3 -0.8,0.6 -1.4,0.7 -1.1,0.3 -2.2,0.3 -2.4,0.3 l -2.3,-3.5 c 0.5,-0.1 1,-0.3 2.2,-0.3 z" />
</svg>
