<?xml version="1.0" encoding="UTF-8" standalone="no"?>
<svg
   xmlns:dc="http://purl.org/dc/elements/1.1/"
   xmlns:cc="http://creativecommons.org/ns#"
   xmlns:rdf="http://www.w3.org/1999/02/22-rdf-syntax-ns#"
   xmlns:svg="http://www.w3.org/2000/svg"
   xmlns="http://www.w3.org/2000/svg"
   id="svg4693"
   version="1.1"
   width="20"
   height="20"
   viewBox="0 0 20 20">
  <metadata
     id="metadata4699">
    <rdf:RDF>
      <cc:Work
         rdf:about="">
        <dc:format>image/svg+xml</dc:format>
        <dc:type
           rdf:resource="http://purl.org/dc/dcmitype/StillImage" />
        <dc:title></dc:title>
      </cc:Work>
    </rdf:RDF>
  </metadata>
  <defs
     id="defs4697" />
  <path
     id="path1263-2"
     d="M 2.5,1 A 0.5,0.5 0 0 0 2.1,1.8 c 0,0 1.1,2.3 2.7,4.4 0.8,1.1 1.6,2.1 2.6,2.8 0.5,0.3 0.9,0.6 1.4,0.7 0.5,0.1 1,0.1 1.5,-0.1 1.7,-0.9 2.2,-2.6 2.2,-4 0,-1.4 -0.4,-2.6 -0.4,-2.6 a 0.5,0.5 0 1 0 -0.9,0.3 c 0,0 0.4,1.1 0.4,2.3 0,1.2 -0.3,2.5 -1.6,3.1 C 9.6,8.8 9.3,8.8 9,8.7 8.7,8.6 8.3,8.4 7.9,8.1 7.1,7.6 6.3,6.6 5.5,5.6 4.1,3.6 3,1.3 3,1.3 A 0.5,0.5 0 0 0 2.5,1 Z" />
  <path
     id="path1269-4"
     d="m 13.4,10.6 a 0.5,0.5 0 0 0 -0.3,0.1 l -2.8,2 a 0.5,0.5 0 0 0 -0.1,0.7 l 3.4,4.9 a 0.5,0.5 0 0 0 0.3,0.2 0.5,0.5 0 0 0 0,0 0.5,0.5 0 0 0 0,0 0.5,0.5 0 0 0 0,0 0.5,0.5 0 0 0 0,0 0.5,0.5 0 0 0 0,0 0.5,0.5 0 0 0 0,0 0.5,0.5 0 0 0 0,0 0.5,0.5 0 0 0 0.4,-0.1 l 2.7,-1.9 a 0.5,0.5 0 0 0 0.1,-0.7 l -3.4,-5 a 0.5,0.5 0 0 0 -0.4,-0.2 z m -0.1,1.2 2.9,4.2 -2,1.4 -2.9,-4.1 z" />
  <path
     id="path7848"
     d="M 10.6,8.7 9.8,9.3 l 1.8,2.7 0.8,-0.6 z" />
</svg>
