<?xml version="1.0" encoding="UTF-8" standalone="no"?>
<svg
   xmlns:dc="http://purl.org/dc/elements/1.1/"
   xmlns:cc="http://creativecommons.org/ns#"
   xmlns:rdf="http://www.w3.org/1999/02/22-rdf-syntax-ns#"
   xmlns:svg="http://www.w3.org/2000/svg"
   xmlns="http://www.w3.org/2000/svg"
   viewBox="0 0 20 20"
   height="20"
   width="20"
   version="1.1"
   id="svg4693">
  <metadata
     id="metadata4699">
    <rdf:RDF>
      <cc:Work
         rdf:about="">
        <dc:format>image/svg+xml</dc:format>
        <dc:type
           rdf:resource="http://purl.org/dc/dcmitype/StillImage" />
        <dc:title></dc:title>
      </cc:Work>
    </rdf:RDF>
  </metadata>
  <defs
     id="defs4697" />
  <path
     id="path1157-6"
     d="m 2.1,0.7 a 0.5,0.5 0 1 0 0,1 H 5.9 L 1.7,5.9 a 0.5,0.5 0 0 0 0.4,0.9 h 5 a 0.5,0.5 0 1 0 0,-1 H 3.3 L 7.4,1.6 A 0.5,0.5 0 0 0 7.1,0.7 Z" />
  <path
     id="path1155-3"
     d="M 4.5,9.2 A 0.5,0.5 0 0 0 4.1,9.6 l -3,9 a 0.5,0.5 0 1 0 0.9,0.3 l 2.5,-7.6 2.5,7.6 A 0.5,0.5 0 1 0 8,18.6 l -3,-9 a 0.5,0.5 0 0 0 -0.5,-0.3 z" />
  <path
     id="path1159-7"
     d="m 2.6,15.2 v 1 h 4 v -1 z" />
  <path
     id="path1163-5"
     d="m 11.6,13.7 h 6 L 14.6,6.7 Z" />
</svg>
