<?xml version="1.0" encoding="UTF-8" standalone="no"?>
<svg
   xmlns:dc="http://purl.org/dc/elements/1.1/"
   xmlns:cc="http://creativecommons.org/ns#"
   xmlns:rdf="http://www.w3.org/1999/02/22-rdf-syntax-ns#"
   xmlns:svg="http://www.w3.org/2000/svg"
   xmlns="http://www.w3.org/2000/svg"
   id="svg4693"
   version="1.1"
   width="20"
   height="20"
   viewBox="0 0 20 20">
  <metadata
     id="metadata4699">
    <rdf:RDF>
      <cc:Work
         rdf:about="">
        <dc:format>image/svg+xml</dc:format>
        <dc:type
           rdf:resource="http://purl.org/dc/dcmitype/StillImage" />
        <dc:title></dc:title>
      </cc:Work>
    </rdf:RDF>
  </metadata>
  <defs
     id="defs4697" />
  <path
     id="path4338-6"
     d="m 2.5,2 a 0.5,0.5 0 0 0 -0.3,0.1 0.5,0.5 0 0 0 0,0 0.5,0.5 0 0 0 0,0 0.5,0.5 0 0 0 0,0 0.5,0.5 0 0 0 0,0 0.5,0.5 0 0 0 0,0 0.5,0.5 0 0 0 0,0 0.5,0.5 0 0 0 0,0 0.5,0.5 0 0 0 -0.1,0.4 V 17.5 a 0.5,0.5 0 0 0 0.5,0.5 H 17.5 a 0.5,0.5 0 0 0 0.5,-0.5 v -15 a 0.5,0.5 0 0 0 -0.5,-0.5 H 2.6 A 0.5,0.5 0 0 0 2.5,2 Z M 3,3 H 17 V 17 H 3 Z"/>
  <path
     id="path4340-0"
     d="M 7.5,2.5 A 0.5,0.5 0 0 0 7,3 v 14 a 0.5,0.5 0 1 0 1,0 V 3 A 0.5,0.5 0 0 0 7.5,2.5 Z"/>
  <path
     id="path4342-4"
     d="M 12.5,2.5 A 0.5,0.5 0 0 0 12,3 v 14 a 0.5,0.5 0 1 0 1,0 V 3 A 0.5,0.5 0 0 0 12.5,2.5 Z"/>
  <path
     id="path4346-8"
     d="m 3,7 a 0.5,0.5 0 1 0 0,1 H 17 a 0.5,0.5 0 1 0 0,-1 z"/>
  <path
     id="path4348-8"
     d="m 3,12 a 0.5,0.5 0 1 0 0,1 H 17 a 0.5,0.5 0 1 0 0,-1 z"/>
</svg>
