<?xml version="1.0" encoding="UTF-8" standalone="no"?>
<svg
   xmlns:dc="http://purl.org/dc/elements/1.1/"
   xmlns:cc="http://creativecommons.org/ns#"
   xmlns:rdf="http://www.w3.org/1999/02/22-rdf-syntax-ns#"
   xmlns:svg="http://www.w3.org/2000/svg"
   xmlns="http://www.w3.org/2000/svg"
   id="svg5670"
   version="1.1"
   viewBox="0 0 20 20"
   height="20"
   width="20">
  <defs
     id="defs5664" />
  <metadata
     id="metadata5667">
    <rdf:RDF>
      <cc:Work
         rdf:about="">
        <dc:format>image/svg+xml</dc:format>
        <dc:type
           rdf:resource="http://purl.org/dc/dcmitype/StillImage" />
        <dc:title></dc:title>
      </cc:Work>
    </rdf:RDF>
  </metadata>
  <path
     id="path1079-6"
     d="M 10,1.3 A 0.5,0.5 0 0 0 9.5,1.8 v 1 a 0.5,0.5 0 1 0 1,0 v -1 A 0.5,0.5 0 0 0 10,1.3 Z m 0,4 A 0.5,0.5 0 0 0 9.5,5.8 v 1 a 0.5,0.5 0 1 0 1,0 v -1 A 0.5,0.5 0 0 0 10,5.3 Z m 0,4 A 0.5,0.5 0 0 0 9.5,9.8 v 1 a 0.5,0.5 0 1 0 1,0 V 9.8 A 0.5,0.5 0 0 0 10,9.3 Z m 0,4 a 0.5,0.5 0 0 0 -0.5,0.5 v 1 a 0.5,0.5 0 1 0 1,0 v -1 a 0.5,0.5 0 0 0 -0.5,-0.5 z m 0,4 a 0.5,0.5 0 0 0 -0.5,0.5 v 1 a 0.5,0.5 0 1 0 1,0 v -1 a 0.5,0.5 0 0 0 -0.5,-0.5 z" />
  <path
     id="path1081-4"
     d="M 7,2.3 A 0.5,0.5 0 0 0 6.6,2.6 l -6,15 a 0.5,0.5 0 0 0 0.5,0.7 h 6 a 0.5,0.5 0 0 0 0.5,-0.5 V 2.8 a 0.5,0.5 0 0 0 -0.5,-0.5 z M 6.5,5.4 V 17.3 H 1.8 Z" />
  <path
     id="path1081-4-3"
     d="m 13,2.3 a 0.5,0.5 0 0 0 -0.5,0.5 V 17.8 a 0.5,0.5 0 0 0 0.5,0.5 h 6 A 0.5,0.5 0 0 0 19.5,17.6 l -6,-15 A 0.5,0.5 0 0 0 13,2.3 Z m 0.5,3.1 4.8,11.9 h -4.8 z" />
</svg>
