<?xml version="1.0" encoding="UTF-8" standalone="no"?>
<svg
   xmlns:dc="http://purl.org/dc/elements/1.1/"
   xmlns:cc="http://creativecommons.org/ns#"
   xmlns:rdf="http://www.w3.org/1999/02/22-rdf-syntax-ns#"
   xmlns:svg="http://www.w3.org/2000/svg"
   xmlns="http://www.w3.org/2000/svg"
   viewBox="0 0 20 20"
   height="20"
   width="20"
   version="1.1"
   id="svg4693">
  <metadata
     id="metadata4699">
    <rdf:RDF>
      <cc:Work
         rdf:about="">
        <dc:format>image/svg+xml</dc:format>
        <dc:type
           rdf:resource="http://purl.org/dc/dcmitype/StillImage" />
        <dc:title></dc:title>
      </cc:Work>
    </rdf:RDF>
  </metadata>
  <defs
     id="defs4697" />
  <circle
     r="1"
     cy="10.254549"
     cx="10.131546"
     id="path1739" />
  <path
     id="path1741"
     d="M 7.1,0.6 A 0.5,0.5 0 0 0 6.7,0.9 l -6,10 a 0.5,0.5 0 0 0 0.4,0.8 h 6 a 0.5,0.5 0 0 0 0.5,-0.5 V 1.1 A 0.5,0.5 0 0 0 7.1,0.6 Z M 6.6,2.9 V 10.6 H 2 Z" />
  <path
     id="path1741-3"
     d="m 13.1,8.6 a 0.5,0.5 0 0 0 -0.5,0.5 v 10 a 0.5,0.5 0 0 0 0.9,0.3 l 6,-10 A 0.5,0.5 0 0 0 19.1,8.6 Z m 0.5,1 h 4.6 l -4.6,7.7 z" />
</svg>
