<?xml version="1.0" encoding="UTF-8" standalone="no"?>
<svg
   xmlns:dc="http://purl.org/dc/elements/1.1/"
   xmlns:cc="http://creativecommons.org/ns#"
   xmlns:rdf="http://www.w3.org/1999/02/22-rdf-syntax-ns#"
   xmlns:svg="http://www.w3.org/2000/svg"
   xmlns="http://www.w3.org/2000/svg"
   id="svg4693"
   version="1.1"
   width="20"
   height="20"
   viewBox="0 0 20 20">
  <metadata
     id="metadata4699">
    <rdf:RDF>
      <cc:Work
         rdf:about="">
        <dc:format>image/svg+xml</dc:format>
        <dc:type
           rdf:resource="http://purl.org/dc/dcmitype/StillImage" />
        <dc:title></dc:title>
      </cc:Work>
    </rdf:RDF>
  </metadata>
  <defs
     id="defs4697" />
  <path
     id="path8835-3-6"
     d="M 10,3 A 0.5,0.5 0 0 0 9.6,3.1 L 2.2,9.1 a 0.5,0.5 0 0 0 0,0.8 l 7.5,6 a 0.5,0.5 0 0 0 0.6,0 l 7.5,-6 a 0.5,0.5 0 0 0 0,-0.8 L 10.4,3.1 a 0.5,0.5 0 0 0 -0.3,-0.2 0.5,0.5 0 0 0 0,0 0.5,0.5 0 0 0 0,0 0.5,0.5 0 0 0 -0.1,0 z M 10,4.1 16.7,9.5 10,14.8 3.3,9.5 Z" />
</svg>
