<?xml version="1.0" encoding="UTF-8" standalone="no"?>
<svg
   xmlns:dc="http://purl.org/dc/elements/1.1/"
   xmlns:cc="http://creativecommons.org/ns#"
   xmlns:rdf="http://www.w3.org/1999/02/22-rdf-syntax-ns#"
   xmlns:svg="http://www.w3.org/2000/svg"
   xmlns="http://www.w3.org/2000/svg"
   viewBox="0 0 20 20"
   height="20"
   width="20"
   version="1.1"
   id="svg4693">
  <metadata
     id="metadata4699">
    <rdf:RDF>
      <cc:Work
         rdf:about="">
        <dc:format>image/svg+xml</dc:format>
        <dc:type
           rdf:resource="http://purl.org/dc/dcmitype/StillImage" />
        <dc:title></dc:title>
      </cc:Work>
    </rdf:RDF>
  </metadata>
  <defs
     id="defs4697" />
  <path
     id="path1209-5-7"
     d="m 2.3,2.3 a 0.5,0.5 0 0 0 -0.3,0.1 0.5,0.5 0 0 0 0,0 0.5,0.5 0 0 0 0,0 0.5,0.5 0 0 0 0,0 0.5,0.5 0 0 0 -0.1,0.4 V 17.3 a 0.5,0.5 0 0 0 0.5,0.5 H 17.3 a 0.5,0.5 0 0 0 0.5,-0.5 v -14.5 A 0.5,0.5 0 0 0 17.3,2.3 H 2.4 a 0.5,0.5 0 0 0 -0.1,0 z M 2.8,3.3 H 16.8 V 16.8 H 2.8 Z" />
</svg>
