<?xml version="1.0" encoding="UTF-8" standalone="no"?>
<svg
   xmlns:dc="http://purl.org/dc/elements/1.1/"
   xmlns:cc="http://creativecommons.org/ns#"
   xmlns:rdf="http://www.w3.org/1999/02/22-rdf-syntax-ns#"
   xmlns:svg="http://www.w3.org/2000/svg"
   xmlns="http://www.w3.org/2000/svg"
   id="svg4693"
   version="1.1"
   width="20"
   height="20"
   viewBox="0 0 20 20">
  <metadata
     id="metadata4699">
    <rdf:RDF>
      <cc:Work
         rdf:about="">
        <dc:format>image/svg+xml</dc:format>
        <dc:type
           rdf:resource="http://purl.org/dc/dcmitype/StillImage" />
        <dc:title></dc:title>
      </cc:Work>
    </rdf:RDF>
  </metadata>
  <defs
     id="defs4697" />
  <path
     id="path4176-0"
     d="m 8.3,6.9 a 0.5,0.5 0 0 0 -0.1,0 C 7.9,7 7.5,7 7.2,7.2 A 0.5,0.5 0 1 0 7.5,8.1 C 7.8,8 8.1,7.9 8.4,7.9 A 0.5,0.5 0 0 0 8.3,6.9 Z M 11.3,7 A 0.5,0.5 0 0 0 11.2,8 c 0.3,0.1 0.6,0.2 0.9,0.3 A 0.5,0.5 0 1 0 12.4,7.4 C 12.1,7.2 11.8,7.1 11.4,7 A 0.5,0.5 0 0 0 11.3,7 Z M 4.8,8.7 A 0.5,0.5 0 0 0 4.5,8.9 C 4.2,9.1 4,9.4 3.8,9.7 A 0.5,0.5 0 1 0 4.6,10.3 C 4.8,10 5,9.8 5.2,9.6 A 0.5,0.5 0 0 0 4.8,8.7 Z m 9.7,0.4 a 0.5,0.5 0 0 0 -0.4,0.8 c 0.2,0.2 0.3,0.5 0.5,0.8 a 0.5,0.5 0 1 0 0.9,-0.4 C 15.4,9.9 15.2,9.6 15,9.3 A 0.5,0.5 0 0 0 14.5,9.1 Z m 1,2.8 a 0.5,0.5 0 0 0 -0.5,0.5 c 0,0.3 0,0.6 -0.1,0.9 a 0.5,0.5 0 1 0 1,0.2 c 0.1,-0.4 0.1,-0.7 0.1,-1.1 A 0.5,0.5 0 0 0 15.5,11.9 Z M 3.5,12.4 a 0.5,0.5 0 0 0 -0.5,0.6 c 0,0.4 0.1,0.7 0.2,1.1 A 0.5,0.5 0 1 0 4.2,13.7 C 4.1,13.4 4.1,13.1 4,12.8 A 0.5,0.5 0 0 0 3.5,12.4 Z m 10.4,3 a 0.5,0.5 0 0 0 -0.4,0.1 c -0.2,0.2 -0.5,0.4 -0.7,0.5 a 0.5,0.5 0 1 0 0.5,0.8 c 0.3,-0.2 0.6,-0.4 0.9,-0.7 a 0.5,0.5 0 0 0 -0.3,-0.9 z m -8.4,0.3 A 0.5,0.5 0 0 0 5.2,16.6 C 5.5,16.8 5.8,17 6.2,17.2 A 0.5,0.5 0 1 0 6.6,16.3 C 6.3,16.2 6.1,16 5.8,15.8 A 0.5,0.5 0 0 0 5.5,15.7 Z m 4.7,1.3 a 0.5,0.5 0 0 0 0,0 c -0.3,0 -0.6,0 -0.9,0 a 0.5,0.5 0 1 0 0,1 c 0.4,0 0.7,0 1.1,0 a 0.5,0.5 0 0 0 -0.1,-1 z" />
  <path
     id="path4180-5"
     d="M 2.3,2.8 5,6.6" />
  <path
     id="path4182-6"
     d="M 17,2.8 14.3,6.6" />
  <path
     id="path4184-64"
     d="M 6.3,1.5 7.6,5.3" />
  <path
     id="path4186-0"
     d="M 13,1.5 11.6,5.3" />
</svg>
