<?xml version="1.0" encoding="UTF-8" standalone="no"?>
<svg
   xmlns:dc="http://purl.org/dc/elements/1.1/"
   xmlns:cc="http://creativecommons.org/ns#"
   xmlns:rdf="http://www.w3.org/1999/02/22-rdf-syntax-ns#"
   xmlns:svg="http://www.w3.org/2000/svg"
   xmlns="http://www.w3.org/2000/svg"
   id="svg4693"
   version="1.1"
   width="20"
   height="20"
   viewBox="0 0 20 20">
  <metadata
     id="metadata4699">
    <rdf:RDF>
      <cc:Work
         rdf:about="">
        <dc:format>image/svg+xml</dc:format>
        <dc:type
           rdf:resource="http://purl.org/dc/dcmitype/StillImage" />
        <dc:title></dc:title>
      </cc:Work>
    </rdf:RDF>
  </metadata>
  <defs
     id="defs4697" />
  <path
     id="path4176-0"
     d="m 9.5,6.8 c -3.5,0 -6.5,2.5 -6.5,5.6 0,3.1 3,5.6 6.5,5.6 3.5,0 6.5,-2.5 6.5,-5.6 0,-3.1 -3,-5.6 -6.5,-5.6 z m 0,1 c 3.1,0 5.5,2.1 5.5,4.6 0,2.5 -2.4,4.6 -5.5,4.6 -3.1,0 -5.5,-2.1 -5.5,-4.6 0,-2.5 2.4,-4.6 5.5,-4.6 z" />
  <path
     id="path4180-5"
     d="M 2.3,2.3 A 0.5,0.5 0 0 0 1.9,3.1 L 4.6,6.9 A 0.5,0.5 0 1 0 5.4,6.3 L 2.7,2.5 A 0.5,0.5 0 0 0 2.3,2.3 Z" />
  <path
     id="path4182-6"
     d="m 17,2.3 a 0.5,0.5 0 0 0 -0.4,0.2 l -2.7,3.8 a 0.5,0.5 0 1 0 0.8,0.6 L 17.4,3.1 A 0.5,0.5 0 0 0 17,2.3 Z" />
  <path
     id="path4184-64"
     d="M 6.3,1 A 0.5,0.5 0 0 0 5.8,1.7 L 7.2,5.5 A 0.5,0.5 0 1 0 8.1,5.2 L 6.8,1.3 A 0.5,0.5 0 0 0 6.3,1 Z" />
  <path
     id="path4186-0"
     d="M 13,1 A 0.5,0.5 0 0 0 12.5,1.3 l -1.3,3.8 a 0.5,0.5 0 1 0 0.9,0.3 L 13.4,1.7 A 0.5,0.5 0 0 0 13,1 Z" />
</svg>
