<?xml version="1.0" encoding="UTF-8" standalone="no"?>
<svg
   xmlns:dc="http://purl.org/dc/elements/1.1/"
   xmlns:cc="http://creativecommons.org/ns#"
   xmlns:rdf="http://www.w3.org/1999/02/22-rdf-syntax-ns#"
   xmlns:svg="http://www.w3.org/2000/svg"
   xmlns="http://www.w3.org/2000/svg"
   viewBox="0 0 20 20"
   height="20"
   width="20"
   version="1.1"
   id="svg4693">
  <metadata
     id="metadata4699">
    <rdf:RDF>
      <cc:Work
         rdf:about="">
        <dc:format>image/svg+xml</dc:format>
        <dc:type
           rdf:resource="http://purl.org/dc/dcmitype/StillImage" />
        <dc:title></dc:title>
      </cc:Work>
    </rdf:RDF>
  </metadata>
  <defs
     id="defs4697" />
  <path
     id="path1209-5-6"
     d="M 4.9,6.5 A 0.5,0.5 0 0 0 4.6,6.7 a 0.5,0.5 0 0 0 0,0 0.5,0.5 0 0 0 0,0 0.5,0.5 0 0 0 0,0 0.5,0.5 0 0 0 0,0 0.5,0.5 0 0 0 0,0 0.5,0.5 0 0 0 -0.1,0.4 v 9.9 a 0.5,0.5 0 0 0 0.5,0.5 H 14.9 a 0.5,0.5 0 0 0 0.5,-0.5 V 7 a 0.5,0.5 0 0 0 -0.5,-0.5 H 5 a 0.5,0.5 0 0 0 -0.1,0 z M 5.4,7.5 H 14.4 V 16.5 H 5.4 Z" />
</svg>
