<?xml version="1.0" encoding="UTF-8" standalone="no"?>
<svg
   xmlns:dc="http://purl.org/dc/elements/1.1/"
   xmlns:cc="http://creativecommons.org/ns#"
   xmlns:rdf="http://www.w3.org/1999/02/22-rdf-syntax-ns#"
   xmlns:svg="http://www.w3.org/2000/svg"
   xmlns="http://www.w3.org/2000/svg"
   id="svg4693"
   version="1.1"
   width="20"
   height="20"
   viewBox="0 0 20 20">
  <metadata
     id="metadata4699">
    <rdf:RDF>
      <cc:Work
         rdf:about="">
        <dc:format>image/svg+xml</dc:format>
        <dc:type
           rdf:resource="http://purl.org/dc/dcmitype/StillImage" />
        <dc:title></dc:title>
      </cc:Work>
    </rdf:RDF>
  </metadata>
  <defs
     id="defs4697" />
  <path
     id="path8835-3"
     d="M 10,2.1 A 0.5,0.5 0 0 0 9.9,2.1 0.5,0.5 0 0 0 9.9,2.1 0.5,0.5 0 0 0 9.6,2.3 L 2.1,9.7 a 0.5,0.5 0 0 0 0,0.7 l 7.5,7.5 a 0.5,0.5 0 0 0 0.7,0 l 7.5,-7.5 a 0.5,0.5 0 0 0 0,-0.7 L 10.4,2.3 a 0.5,0.5 0 0 0 0,0 0.5,0.5 0 0 0 -0.3,-0.2 0.5,0.5 0 0 0 -0.1,0 0.5,0.5 0 0 0 0,0 z M 10,3.3 16.8,10.1 10,16.9 3.2,10.1 Z" />
</svg>
