<?xml version="1.0" encoding="UTF-8" standalone="no"?>
<svg
   xmlns:dc="http://purl.org/dc/elements/1.1/"
   xmlns:cc="http://creativecommons.org/ns#"
   xmlns:rdf="http://www.w3.org/1999/02/22-rdf-syntax-ns#"
   xmlns:svg="http://www.w3.org/2000/svg"
   xmlns="http://www.w3.org/2000/svg"
   id="svg4693"
   version="1.1"
   width="20"
   height="20"
   viewBox="0 0 20 20">
  <metadata
     id="metadata4699">
    <rdf:RDF>
      <cc:Work
         rdf:about="">
        <dc:format>image/svg+xml</dc:format>
        <dc:type
           rdf:resource="http://purl.org/dc/dcmitype/StillImage" />
        <dc:title></dc:title>
      </cc:Work>
    </rdf:RDF>
  </metadata>
  <defs
     id="defs4697" />
  <path
     id="rect4373-0"
     d="m 8.5,1 a 0.5,0.5 0 0 0 -0.3,0.1 0.5,0.5 0 0 0 0,0 0.5,0.5 0 0 0 0,0 0.5,0.5 0 0 0 0,0 0.5,0.5 0 0 0 0,0 A 0.5,0.5 0 0 0 8.1,1.2 0.5,0.5 0 0 0 8,1.6 V 17.5 A 0.5,0.5 0 0 0 8.5,18 h 10 a 0.5,0.5 0 0 0 0.5,-0.5 v -16 a 0.5,0.5 0 0 0 -0.5,-0.5 H 8.6 A 0.5,0.5 0 0 0 8.5,1 Z M 9,2 h 9 V 17 H 9 Z" />
  <path
     id="path1144-2"
     d="m 1.5,17 a 0.5,0.5 0 1 0 0,1 h 4.4 a 0.5,0.5 0 1 0 0,-1 z" />
  <path
     id="path1146-1"
     d="m 1.5,14 a 0.5,0.5 0 1 0 0,1 h 4.4 a 0.5,0.5 0 1 0 0,-1 z" />
  <path
     id="path1148-0"
     d="m 1.5,11 a 0.5,0.5 0 1 0 0,1 h 4.4 a 0.5,0.5 0 1 0 0,-1 z" />
</svg>
