<?xml version="1.0" encoding="UTF-8" standalone="no"?>
<svg
   xmlns:dc="http://purl.org/dc/elements/1.1/"
   xmlns:cc="http://creativecommons.org/ns#"
   xmlns:rdf="http://www.w3.org/1999/02/22-rdf-syntax-ns#"
   xmlns:svg="http://www.w3.org/2000/svg"
   xmlns="http://www.w3.org/2000/svg"
   id="svg4693"
   version="1.1"
   width="20"
   height="20"
   viewBox="0 0 20 20">
  <metadata
     id="metadata4699">
    <rdf:RDF>
      <cc:Work
         rdf:about="">
        <dc:format>image/svg+xml</dc:format>
        <dc:type
           rdf:resource="http://purl.org/dc/dcmitype/StillImage" />
        <dc:title></dc:title>
      </cc:Work>
    </rdf:RDF>
  </metadata>
  <defs
     id="defs4697" />
  <path
     id="rect4254-7"
     d="m 2.5,2 a 0.5,0.5 0 0 0 -0.3,0.1 0.5,0.5 0 0 0 0,0 0.5,0.5 0 0 0 0,0 0.5,0.5 0 0 0 0,0 0.5,0.5 0 0 0 0,0 0.5,0.5 0 0 0 0,0 0.5,0.5 0 0 0 -0.1,0.1 0.5,0.5 0 0 0 -0.1,0.4 V 17.5 a 0.5,0.5 0 0 0 0.5,0.5 l 15,0 a 0.5,0.5 0 0 0 0.5,-0.5 V 2.5 a 0.5,0.5 0 0 0 -0.5,-0.5 H 2.6 A 0.5,0.5 0 0 0 2.5,2 Z M 3,3 H 17 V 17 L 3,17 Z" />
  <path
     id="path4258-6"
     d="m 8.4,12 a 0.5,0.5 0 1 0 0,1 h 6.2 a 0.5,0.5 0 1 0 0,-1 z" />
  <path
     id="path4260-4"
     d="m 11.5,8.8 a 0.5,0.5 0 0 0 -0.5,0.5 v 6.2 a 0.5,0.5 0 1 0 1,0 V 9.3 A 0.5,0.5 0 0 0 11.5,8.8 Z" />
</svg>
