<?xml version="1.0" encoding="UTF-8" standalone="no"?>
<svg
   xmlns:dc="http://purl.org/dc/elements/1.1/"
   xmlns:cc="http://creativecommons.org/ns#"
   xmlns:rdf="http://www.w3.org/1999/02/22-rdf-syntax-ns#"
   xmlns:svg="http://www.w3.org/2000/svg"
   xmlns="http://www.w3.org/2000/svg"
   id="svg4693"
   version="1.1"
   width="20"
   height="20"
   viewBox="0 0 20 20">
  <metadata
     id="metadata4699">
    <rdf:RDF>
      <cc:Work
         rdf:about="">
        <dc:format>image/svg+xml</dc:format>
        <dc:type
           rdf:resource="http://purl.org/dc/dcmitype/StillImage" />
        <dc:title></dc:title>
      </cc:Work>
    </rdf:RDF>
  </metadata>
  <defs
     id="defs4697" />
  <path
     id="rect4262-9"
     d="M 1.5,8 A 0.5,0.5 0 0 0 1,8.5 v 9 A 0.5,0.5 0 0 0 1.5,18 h 16 A 0.5,0.5 0 0 0 18,17.5 v -9 A 0.5,0.5 0 0 0 17.5,8 Z M 2,9 h 15 v 8 H 2 Z" />
  <path
     id="path4264-7"
     d="M 2.5,2 A 0.5,0.5 0 0 0 2,2.4 L 1,8.2 a 0.5,0.5 0 1 0 1,0.2 L 2.9,3 H 8.1 L 9,5.7 A 0.5,0.5 0 0 0 9.5,6 H 17 l 0,2.3 a 0.5,0.5 0 1 0 1,0 L 18,5.5 A 0.5,0.5 0 0 0 17.5,5 H 9.9 L 9,2.3 A 0.5,0.5 0 0 0 8.5,2 Z" />
</svg>
