<?xml version="1.0" encoding="UTF-8" standalone="no"?>
<svg
   xmlns:dc="http://purl.org/dc/elements/1.1/"
   xmlns:cc="http://creativecommons.org/ns#"
   xmlns:rdf="http://www.w3.org/1999/02/22-rdf-syntax-ns#"
   xmlns:svg="http://www.w3.org/2000/svg"
   xmlns="http://www.w3.org/2000/svg"
   id="svg4693"
   version="1.1"
   width="20"
   height="20"
   viewBox="0 0 20 20">
  <metadata
     id="metadata4699">
    <rdf:RDF>
      <cc:Work
         rdf:about="">
        <dc:format>image/svg+xml</dc:format>
        <dc:type
           rdf:resource="http://purl.org/dc/dcmitype/StillImage" />
        <dc:title></dc:title>
      </cc:Work>
    </rdf:RDF>
  </metadata>
  <defs
     id="defs4697" />
  <path
     id="path1045-5"
     d="M 1.5,4 A 0.5,0.5 0 0 0 1,4.5 v 13 A 0.5,0.5 0 0 0 1.5,18 h 5.7 a 0.5,0.5 0 1 0 0,-1 H 2 V 5 h 12 v 2.2 a 0.5,0.5 0 1 0 1,0 V 4.5 A 0.5,0.5 0 0 0 14.5,4 Z" />
  <path
     id="path1047-9"
     d="M 4.5,1 A 0.5,0.5 0 0 0 4,1.5 v 2.8 a 0.5,0.5 0 1 0 1,0 V 2 h 6 v 2.3 a 0.5,0.5 0 1 0 1,0 V 1.5 A 0.5,0.5 0 0 0 11.5,1 Z" />
  <path
     id="path1049-4"
     d="m 7.5,7 a 0.5,0.5 0 0 0 -0.3,0.1 0.5,0.5 0 0 0 0,0 0.5,0.5 0 0 0 0,0 0.5,0.5 0 0 0 0,0 0.5,0.5 0 0 0 0,0 0.5,0.5 0 0 0 0,0 0.5,0.5 0 0 0 0,0 0.5,0.5 0 0 0 0,0 0.5,0.5 0 0 0 -0.1,0.4 V 18.5 a 0.5,0.5 0 0 0 0.5,0.5 H 17.5 A 0.5,0.5 0 0 0 18,18.5 V 7.5 A 0.5,0.5 0 0 0 17.5,7 H 7.6 A 0.5,0.5 0 0 0 7.5,7 Z M 8,8 H 17 V 18 H 8 Z" />
  <path
     id="path1051-6"
     d="m 4.5,12.1 a 0.5,0.5 0 0 0 0.1,1 h 8.5 a 0.5,0.5 0 1 0 0,-1 H 4.5 a 0.5,0.5 0 0 0 -0.1,0 z" />
  <path
     id="path1053-9"
     d="M 10.2,9.2 A 0.5,0.5 0 0 0 9.8,10.1 L 12.3,12.6 9.8,15 a 0.5,0.5 0 1 0 0.7,0.7 l 2.8,-2.8 a 0.5,0.5 0 0 0 0,-0.7 L 10.5,9.4 A 0.5,0.5 0 0 0 10.2,9.2 Z" />
</svg>
