<?xml version="1.0" encoding="UTF-8" standalone="no"?>
<svg
   xmlns:dc="http://purl.org/dc/elements/1.1/"
   xmlns:cc="http://creativecommons.org/ns#"
   xmlns:rdf="http://www.w3.org/1999/02/22-rdf-syntax-ns#"
   xmlns:svg="http://www.w3.org/2000/svg"
   xmlns="http://www.w3.org/2000/svg"
   id="svg4693"
   version="1.1"
   width="20"
   height="20"
   viewBox="0 0 20 20">
  <metadata
     id="metadata4699">
    <rdf:RDF>
      <cc:Work
         rdf:about="">
        <dc:format>image/svg+xml</dc:format>
        <dc:type
           rdf:resource="http://purl.org/dc/dcmitype/StillImage" />
        <dc:title></dc:title>
      </cc:Work>
    </rdf:RDF>
  </metadata>
  <defs
     id="defs4697" />
  <path
     id="path1132-2"
     d="m 3.4,8.9 c -1.1,0 -2,0.9 -2,2 0,1.1 0.9,2 2,2 1.1,0 2,-0.9 2,-2 0,-1.1 -0.9,-2 -2,-2 z m 0,1 c 0.6,0 1,0.5 1,1 0,0.6 -0.5,1 -1,1 -0.6,0 -1,-0.5 -1,-1 0,-0.6 0.5,-1 1,-1 z" />
  <path
     id="path1132-2-9"
     d="m 11,1.2 c -1.1,0 -2,0.9 -2,2 0,1.1 0.9,2 2,2 1.1,0 2,-0.9 2,-2 0,-1.1 -0.9,-2 -2,-2 z m 0,1 c 0.6,0 1,0.5 1,1 0,0.6 -0.5,1 -1,1 -0.6,0 -1,-0.5 -1,-1 0,-0.6 0.5,-1 1,-1 z" />
  <path
     id="path8835"
     d="m 11,2.5 a 0.5,0.5 0 0 0 -0.4,0.2 L 3.1,10.7 a 0.5,0.5 0 0 0 0,0.7 l 7,7.5 a 0.5,0.5 0 0 0 0.7,0 l 7.5,-7.5 a 0.5,0.5 0 0 0 0,-0.7 L 11.4,2.7 a 0.5,0.5 0 0 0 -0.3,-0.2 0.5,0.5 0 0 0 0,0 0.5,0.5 0 0 0 0,0 0.5,0.5 0 0 0 0,0 0.5,0.5 0 0 0 0,0 0.5,0.5 0 0 0 0,0 0.5,0.5 0 0 0 0,0 z m 0,1.3 6.3,7.2 L 10.5,17.8 4.2,11 Z" />
</svg>
