<?xml version="1.0" encoding="UTF-8" standalone="no"?>
<svg
   xmlns:dc="http://purl.org/dc/elements/1.1/"
   xmlns:cc="http://creativecommons.org/ns#"
   xmlns:rdf="http://www.w3.org/1999/02/22-rdf-syntax-ns#"
   xmlns:svg="http://www.w3.org/2000/svg"
   xmlns="http://www.w3.org/2000/svg"
   viewBox="0 0 20 20"
   height="20"
   width="20"
   version="1.1"
   id="svg4693">
  <metadata
     id="metadata4699">
    <rdf:RDF>
      <cc:Work
         rdf:about="">
        <dc:format>image/svg+xml</dc:format>
        <dc:type
           rdf:resource="http://purl.org/dc/dcmitype/StillImage" />
        <dc:title></dc:title>
      </cc:Work>
    </rdf:RDF>
  </metadata>
  <defs
     id="defs4697" />
  <path
     id="path1167"
     d="M 9.4,2.6 C 5.6,2.4 2.2,5.6 2.1,10.4 c -0.1,2.4 0.7,4.3 2,5.5 1.3,1.2 3.2,1.8 5.3,1.7 2.6,-0.1 4.2,-1.3 5,-2.5 0.8,-1.1 1,-2.3 1,-2.3 L 14.3,12.8 c 0,0 -0.1,0.9 -0.8,1.8 -0.7,0.9 -1.9,1.9 -4.2,2 C 7.4,16.7 5.8,16.2 4.7,15.2 3.6,14.2 3,12.6 3.1,10.4 3.2,6.1 6.1,3.4 9.3,3.6 c 2.6,0.1 3.9,1.3 4.6,2.5 0.7,1.2 0.9,2.3 0.9,2.3 l 1,-0.1 c 0,0 -0.1,-1.4 -1,-2.8 -0.9,-1.4 -2.5,-2.8 -5.4,-3 z" />
  <path
     id="path1169"
     d="m 18.2,3.5 -1.1,0.4 -7,2.3 5.4,3.4 z" />
</svg>
