<?xml version="1.0" encoding="UTF-8" standalone="no"?>
<svg
   xmlns:dc="http://purl.org/dc/elements/1.1/"
   xmlns:cc="http://creativecommons.org/ns#"
   xmlns:rdf="http://www.w3.org/1999/02/22-rdf-syntax-ns#"
   xmlns:svg="http://www.w3.org/2000/svg"
   xmlns="http://www.w3.org/2000/svg"
   width="20"
   height="20"
   viewBox="0 0 20 20"
   version="1.1"
   id="svg5670">
  <defs
     id="defs5664" />
  <metadata
     id="metadata5667">
    <rdf:RDF>
      <cc:Work
         rdf:about="">
        <dc:format>image/svg+xml</dc:format>
        <dc:type
           rdf:resource="http://purl.org/dc/dcmitype/StillImage" />
        <dc:title></dc:title>
      </cc:Work>
    </rdf:RDF>
  </metadata>
  <path
     id="path4283-0"
     d="m 8.5,5 a 0.5,0.5 0 0 0 -0.5,0.5 V 10 h -1.5 a 0.5,0.5 0 0 0 -0.4,0.8 l 3.5,4.2 a 0.5,0.5 0 0 0 0.8,0 l 3.5,-4.2 A 0.5,0.5 0 0 0 13.5,10 h -1.5 V 5.5 a 0.5,0.5 0 0 0 -0.5,-0.5 z m 0.5,1 h 2 v 4.5 a 0.5,0.5 0 0 0 0.5,0.5 h 0.9 L 10,13.9 7.6,11 h 0.9 a 0.5,0.5 0 0 0 0.5,-0.5 z" />
  <path
     id="rect4254-7-3"
     d="m 2.5,2 a 0.5,0.5 0 0 0 -0.3,0.1 0.5,0.5 0 0 0 0,0 0.5,0.5 0 0 0 0,0 0.5,0.5 0 0 0 0,0 0.5,0.5 0 0 0 0,0 0.5,0.5 0 0 0 0,0 0.5,0.5 0 0 0 0,0 0.5,0.5 0 0 0 0,0 0.5,0.5 0 0 0 -0.1,0.4 V 17.5 a 0.5,0.5 0 0 0 0.5,0.5 l 15,0 a 0.5,0.5 0 0 0 0.5,-0.5 V 2.5 a 0.5,0.5 0 0 0 -0.5,-0.5 H 2.6 A 0.5,0.5 0 0 0 2.5,2 Z M 3,3 H 17 V 17 L 3,17 Z" />
</svg>
