<?xml version="1.0" encoding="UTF-8" standalone="no"?>
<svg
   xmlns:dc="http://purl.org/dc/elements/1.1/"
   xmlns:cc="http://creativecommons.org/ns#"
   xmlns:rdf="http://www.w3.org/1999/02/22-rdf-syntax-ns#"
   xmlns:svg="http://www.w3.org/2000/svg"
   xmlns="http://www.w3.org/2000/svg"
   id="svg5670"
   version="1.1"
   viewBox="0 0 16 16"
   height="16"
   width="16">
  <defs
     id="defs5664" />
  <metadata
     id="metadata5667">
    <rdf:RDF>
      <cc:Work
         rdf:about="">
        <dc:format>image/svg+xml</dc:format>
        <dc:type
           rdf:resource="http://purl.org/dc/dcmitype/StillImage" />
        <dc:title></dc:title>
      </cc:Work>
    </rdf:RDF>
  </metadata>
  <g
     id="layer1">
    <path
       id="path1109"
       d="m 3.7,1.6 a 0.5,0.5 0 0 0 -0.5,0.5 l 0,8.9 a 0.5,0.5 0 0 0 0.8,0.4 l 2.7,-1.8 3.6,5.2 a 0.5,0.5 0 0 0 0.7,0.1 l 1.9,-1.4 a 0.5,0.5 0 0 0 0.1,-0.7 L 9.4,7.8 11.8,6.1 A 0.5,0.5 0 0 0 11.7,5.2 L 3.9,1.6 a 0.5,0.5 0 0 0 -0.2,0 z m 0.5,1.3 6.3,2.9 -2.1,1.5 a 0.5,0.5 0 0 0 -0.1,0.7 l 3.6,5.1 -1.1,0.8 -3.5,-5.1 a 0.5,0.5 0 0 0 -0.4,-0.3 0.5,0.5 0 0 0 0,0 0.5,0.5 0 0 0 0,0 0.5,0.5 0 0 0 -0.4,0.1 l -2.2,1.5 z" />
  </g>
</svg>
