<?xml version="1.0" encoding="UTF-8" standalone="no"?>
<svg
   xmlns:dc="http://purl.org/dc/elements/1.1/"
   xmlns:cc="http://creativecommons.org/ns#"
   xmlns:rdf="http://www.w3.org/1999/02/22-rdf-syntax-ns#"
   xmlns:svg="http://www.w3.org/2000/svg"
   xmlns="http://www.w3.org/2000/svg"
   viewBox="0 0 20 20"
   height="20"
   width="20"
   version="1.1"
   id="svg4693">
  <metadata
     id="metadata4699">
    <rdf:RDF>
      <cc:Work
         rdf:about="">
        <dc:format>image/svg+xml</dc:format>
        <dc:type
           rdf:resource="http://purl.org/dc/dcmitype/StillImage" />
        <dc:title></dc:title>
      </cc:Work>
    </rdf:RDF>
  </metadata>
  <defs
     id="defs4697" />
  <path
     id="path1209-5-3"
     d="m 6.2421875,8.5800781 a 0.50083746,0.50083746 0 0 0 -0.3164063,0.1210938 0.50083746,0.50083746 0 0 0 -0.033203,0.029297 0.50083746,0.50083746 0 0 0 -0.00586,0.00586 0.50083746,0.50083746 0 0 0 -0.00586,0.00586 0.50083746,0.50083746 0 0 0 -0.027344,0.029297 0.50083746,0.50083746 0 0 0 -0.00195,0.00391 0.50083746,0.50083746 0 0 0 -0.1035156,0.390625 V 16.087891 A 0.50083746,0.50083746 0 0 0 6.25,16.589844 h 7 a 0.50083746,0.50083746 0 0 0 0.5,-0.501953 V 9.0878906 a 0.50083746,0.50083746 0 0 0 -0.5,-0.5 H 6.328125 a 0.50083746,0.50083746 0 0 0 -0.085937,-0.00781 z M 6.75,9.5898438 h 5.998047 V 15.587891 H 6.75 Z"
     style="color:#000000;font-style:normal;font-variant:normal;font-weight:normal;font-stretch:normal;font-size:medium;line-height:normal;font-family:sans-serif;font-variant-ligatures:normal;font-variant-position:normal;font-variant-caps:normal;font-variant-numeric:normal;font-variant-alternates:normal;font-feature-settings:normal;text-indent:0;text-align:start;text-decoration:none;text-decoration-line:none;text-decoration-style:solid;text-decoration-color:#000000;letter-spacing:normal;word-spacing:normal;text-transform:none;writing-mode:lr-tb;direction:ltr;text-orientation:mixed;dominant-baseline:auto;baseline-shift:baseline;text-anchor:start;white-space:normal;shape-padding:0;clip-rule:nonzero;display:inline;overflow:visible;visibility:visible;opacity:1;isolation:auto;mix-blend-mode:normal;color-interpolation:sRGB;color-interpolation-filters:linearRGB;solid-color:#000000;solid-opacity:1;vector-effect:none;fill:#000000;fill-opacity:1;fill-rule:evenodd;stroke:none;stroke-width:1.00157475;stroke-linecap:round;stroke-linejoin:round;stroke-miterlimit:4;stroke-dasharray:none;stroke-dashoffset:0;stroke-opacity:1;color-rendering:auto;image-rendering:auto;shape-rendering:auto;text-rendering:auto;enable-background:accumulate" />
</svg>
