<?xml version="1.0" encoding="UTF-8" standalone="no"?>
<svg
   xmlns:dc="http://purl.org/dc/elements/1.1/"
   xmlns:cc="http://creativecommons.org/ns#"
   xmlns:rdf="http://www.w3.org/1999/02/22-rdf-syntax-ns#"
   xmlns:svg="http://www.w3.org/2000/svg"
   xmlns="http://www.w3.org/2000/svg"
   id="svg4693"
   version="1.1"
   width="20"
   height="20"
   viewBox="0 0 20 20">
  <metadata
     id="metadata4699">
    <rdf:RDF>
      <cc:Work
         rdf:about="">
        <dc:format>image/svg+xml</dc:format>
        <dc:type
           rdf:resource="http://purl.org/dc/dcmitype/StillImage" />
        <dc:title></dc:title>
      </cc:Work>
    </rdf:RDF>
  </metadata>
  <defs
     id="defs4697" />
  <path
     id="path6462-0"
     d="m 2,2 a 1,1 0 1 0 0,2 H 18 a 1,1 0 1 0 0,-2 z" />
  <path
     id="path1036-9"
     d="m 14.3,7 c 0,0 -1,-0.1 -2.1,0.4 -1.1,0.4 -2.4,1.4 -3,3.4 -0.2,0.9 -0.2,2.2 0.1,3.5 a 0.5,0.5 0 0 0 0.1,0.4 c 0,0.1 0,0.3 0.1,0.4 0.2,0.8 0.6,1.5 1.1,2 0.5,0.6 1.3,0.9 2.1,0.9 0.9,0 1.7,-0.2 2.3,-0.6 0.6,-0.5 1,-1.3 1,-2.3 0,-1.2 -0.4,-2 -1.1,-2.5 -0.7,-0.5 -1.5,-0.6 -2.2,-0.6 -0.9,0 -1.7,0.6 -2.3,1.1 -0.2,0.2 -0.2,0.2 -0.3,0.3 -0.1,-0.9 -0.1,-1.8 0,-2.3 0.5,-1.7 1.5,-2.4 2.4,-2.7 0.9,-0.4 1.7,-0.3 1.7,-0.3 a 0.5,0.5 0 1 0 0.1,-1 z m -1.5,5.9 c 0.6,0 1.2,0.1 1.6,0.4 0.4,0.3 0.7,0.8 0.7,1.7 0,0.8 -0.2,1.2 -0.6,1.5 C 14.1,16.8 13.4,17 12.7,17 c -0.6,0 -1,-0.2 -1.4,-0.6 -0.4,-0.4 -0.7,-1 -0.9,-1.6 0,-0.1 0,-0.1 0,-0.2 0.1,-0.1 0.3,-0.3 0.8,-0.7 0.6,-0.4 1.3,-0.8 1.7,-0.9 z" />
</svg>
