<?xml version="1.0" encoding="UTF-8" standalone="no"?>
<svg
   xmlns:dc="http://purl.org/dc/elements/1.1/"
   xmlns:cc="http://creativecommons.org/ns#"
   xmlns:rdf="http://www.w3.org/1999/02/22-rdf-syntax-ns#"
   xmlns:svg="http://www.w3.org/2000/svg"
   xmlns="http://www.w3.org/2000/svg"
   id="svg4693"
   version="1.1"
   width="20"
   height="20"
   viewBox="0 0 20 20">
  <metadata
     id="metadata4699">
    <rdf:RDF>
      <cc:Work
         rdf:about="">
        <dc:format>image/svg+xml</dc:format>
        <dc:type
           rdf:resource="http://purl.org/dc/dcmitype/StillImage" />
        <dc:title></dc:title>
      </cc:Work>
    </rdf:RDF>
  </metadata>
  <defs
     id="defs4697" />
  <path
     id="path6462-0"
     d="m 2,2 a 1,1 0 1 0 0,2 H 18 a 1,1 0 1 0 0,-2 z" />
  <path
     id="path1034-3"
     d="m 9.5,7 a 0.5,0.5 0 0 0 -0.5,0.5 v 4.2 a 0.5,0.5 0 0 0 0.7,0.4 c 0,0 0.5,-0.3 1.2,-0.6 0.7,-0.3 1.5,-0.5 1.9,-0.5 1.1,0 2.2,1.3 2.2,2.7 0,0.6 -0.3,1.5 -0.7,2.1 -0.4,0.6 -1,1 -1.5,1 -0.6,0 -1.4,-0.3 -2,-0.6 -0.6,-0.3 -1,-0.7 -1,-0.7 a 0.5,0.5 0 1 0 -0.6,0.8 c 0,0 0.5,0.4 1.2,0.7 0.7,0.4 1.6,0.8 2.5,0.7 1,0 1.8,-0.7 2.3,-1.5 0.5,-0.8 0.9,-1.8 0.9,-2.7 a 0.5,0.5 0 0 0 0,0 c 0,-1.9 -1.4,-3.6 -3.2,-3.6 -0.8,0 -1.6,0.3 -2.3,0.6 -0.3,0.1 -0.3,0.1 -0.5,0.2 V 8 h 5.6 a 0.5,0.5 0 1 0 0,-1 z" />
</svg>
