<?xml version="1.0" encoding="UTF-8" standalone="no"?>
<svg
   xmlns:dc="http://purl.org/dc/elements/1.1/"
   xmlns:cc="http://creativecommons.org/ns#"
   xmlns:rdf="http://www.w3.org/1999/02/22-rdf-syntax-ns#"
   xmlns:svg="http://www.w3.org/2000/svg"
   xmlns="http://www.w3.org/2000/svg"
   viewBox="0 0 20 20"
   height="20"
   width="20"
   version="1.1"
   id="svg4693">
  <metadata
     id="metadata4699">
    <rdf:RDF>
      <cc:Work
         rdf:about="">
        <dc:format>image/svg+xml</dc:format>
        <dc:type
           rdf:resource="http://purl.org/dc/dcmitype/StillImage" />
        <dc:title></dc:title>
      </cc:Work>
    </rdf:RDF>
  </metadata>
  <defs
     id="defs4697" />
  <path
     d="m 2,2 a 1,1 0 1 0 0,2 H 18 a 1,1 0 1 0 0,-2 z"
     id="path6462-0" />
  <path
     d="m 13.5,7 c -0.9,0 -1.7,0.5 -2.3,0.9 -0.6,0.4 -1,0.9 -1,0.9 a 0.5,0.5 0 1 0 0.7,0.7 c 0,0 0.4,-0.4 0.9,-0.7 0.5,-0.4 1.2,-0.7 1.8,-0.7 0.5,0 1.2,0.2 1.7,0.6 0.5,0.4 0.8,0.8 0.8,1.5 0,0.3 -0.1,0.5 -0.4,0.8 -0.3,0.2 -0.7,0.5 -1.1,0.7 -0.9,0.3 -1.7,0.5 -1.7,0.5 a 0.5,0.5 0 0 0 0,1 c 0,0 0.9,0.1 1.8,0.5 0.4,0.2 0.9,0.4 1.1,0.7 0.3,0.3 0.4,0.5 0.4,0.8 0,0.7 -0.3,1.2 -0.8,1.5 -0.5,0.3 -1.1,0.5 -1.6,0.5 -0.6,0 -1.3,-0.3 -1.9,-0.6 -0.6,-0.3 -1,-0.7 -1,-0.7 a 0.5,0.5 0 1 0 -0.6,0.8 c 0,0 0.5,0.4 1.1,0.8 0.7,0.4 1.5,0.8 2.4,0.8 0.7,0 1.5,-0.2 2.1,-0.7 0.6,-0.5 1.1,-1.3 1.2,-2.3 0,-0.6 -0.3,-1.2 -0.7,-1.6 -0.4,-0.4 -0.9,-0.7 -1.4,-0.9 -0.1,-0.1 -0.1,0 -0.3,-0.1 0.1,0 0.1,0 0.2,-0.1 0.5,-0.2 1,-0.5 1.4,-0.8 0.4,-0.4 0.8,-0.9 0.8,-1.5 0,-1 -0.6,-1.8 -1.3,-2.3 -0.7,-0.5 -1.5,-0.8 -2.3,-0.8 z"
     id="path1030-4" />
</svg>
