<?xml version="1.0" encoding="UTF-8" standalone="no"?>
<svg
   xmlns:dc="http://purl.org/dc/elements/1.1/"
   xmlns:cc="http://creativecommons.org/ns#"
   xmlns:rdf="http://www.w3.org/1999/02/22-rdf-syntax-ns#"
   xmlns:svg="http://www.w3.org/2000/svg"
   xmlns="http://www.w3.org/2000/svg"
   id="svg4693"
   version="1.1"
   width="20"
   height="20"
   viewBox="0 0 20 20">
  <metadata
     id="metadata4699">
    <rdf:RDF>
      <cc:Work
         rdf:about="">
        <dc:format>image/svg+xml</dc:format>
        <dc:type
           rdf:resource="http://purl.org/dc/dcmitype/StillImage" />
        <dc:title></dc:title>
      </cc:Work>
    </rdf:RDF>
  </metadata>
  <defs
     id="defs4697" />
  <path
     id="path6462-0"
     d="m 2,2 a 1,1 0 1 0 0,2 H 18 a 1,1 0 1 0 0,-2 z" />
  <path
     id="path1040-6"
     d="m 12.5,7 c -1.1,0 -2,0.3 -2.6,0.9 -0.6,0.6 -0.9,1.4 -0.9,2.4 0,0.7 0.2,1.5 0.6,2.2 0.4,0.7 1.1,1.2 1.9,1.3 1.6,0 2.6,-0.9 3.2,-1.6 0.1,0.8 0.2,1.8 0.2,2 -0.3,1.5 -1.4,2.2 -2.5,2.6 -1.1,0.4 -2.1,0.3 -2.1,0.3 a 0.5,0.5 0 1 0 0,1 c 0,0 1.2,0 2.5,-0.4 1.3,-0.4 2.8,-1.4 3.1,-3.3 0.2,-0.8 0.1,-2.4 -0.3,-4 C 15.4,9.4 15.1,8.7 14.6,8.1 14.1,7.4 13.4,7 12.5,7 Z m 0,1 c 0.5,0 0.9,0.2 1.3,0.7 0.4,0.4 0.6,1.1 0.8,1.8 0,0.1 0,0.1 0,0.2 a 0.5,0.5 0 0 0 0,0 c 0,0 -1.3,2.1 -3.1,2 C 11.2,12.7 10.8,12.4 10.5,11.9 10.2,11.4 10,10.8 10,10.2 10,9.5 10.2,9 10.6,8.6 11,8.3 11.6,8 12.5,8 Z" />
</svg>
