<?xml version="1.0" encoding="UTF-8" standalone="no"?>
<svg
   xmlns:dc="http://purl.org/dc/elements/1.1/"
   xmlns:cc="http://creativecommons.org/ns#"
   xmlns:rdf="http://www.w3.org/1999/02/22-rdf-syntax-ns#"
   xmlns:svg="http://www.w3.org/2000/svg"
   xmlns="http://www.w3.org/2000/svg"
   id="svg4693"
   version="1.1"
   width="20"
   height="20"
   viewBox="0 0 20 20">
  <metadata
     id="metadata4699">
    <rdf:RDF>
      <cc:Work
         rdf:about="">
        <dc:format>image/svg+xml</dc:format>
        <dc:type
           rdf:resource="http://purl.org/dc/dcmitype/StillImage" />
        <dc:title></dc:title>
      </cc:Work>
    </rdf:RDF>
  </metadata>
  <defs
     id="defs4697" />
  <path
     id="path6462-0"
     d="m 2,2 a 1,1 0 1 0 0,2 H 18 a 1,1 0 1 0 0,-2 z" />
  <path
     id="path962-9"
     d="M 13,7 C 11.5,7 10.4,7.7 9.8,8.5 9.2,9.2 9,9.9 9,9.9 A 0.5,0.5 0 1 0 10,10.2 c 0,0 0.2,-0.5 0.6,-1.1 0.5,-0.6 1.2,-1.1 2.4,-1.1 a 0.5,0.5 0 0 0 0,0 c 0.9,0 1.5,0.3 1.9,0.8 0.4,0.5 0.6,1.1 0.6,1.9 0,0 -0.1,0.2 -0.2,0.5 -0.2,0.3 -0.4,0.6 -0.7,0.9 -0.6,0.7 -1.4,1.5 -2.2,2.3 -1.6,1.5 -3.2,2.8 -3.2,2.8 A 0.5,0.5 0 0 0 9.5,18 h 6.5 a 0.5,0.5 0 1 0 0,-1 h -5.2 c 0.6,-0.5 1.1,-0.9 2.3,-2 0.8,-0.8 1.6,-1.6 2.3,-2.3 0.3,-0.4 0.6,-0.7 0.8,-1.1 0.2,-0.3 0.4,-0.6 0.4,-1 C 16.5,9.7 16.3,8.8 15.7,8.1 15.1,7.4 14.2,7 13,7 Z" />
</svg>
