<?xml version="1.0" encoding="UTF-8" standalone="no"?>
<svg
   xmlns:dc="http://purl.org/dc/elements/1.1/"
   xmlns:cc="http://creativecommons.org/ns#"
   xmlns:rdf="http://www.w3.org/1999/02/22-rdf-syntax-ns#"
   xmlns:svg="http://www.w3.org/2000/svg"
   xmlns="http://www.w3.org/2000/svg"
   id="svg4693"
   version="1.1"
   width="20"
   height="20"
   viewBox="0 0 20 20">
  <metadata
     id="metadata4699">
    <rdf:RDF>
      <cc:Work
         rdf:about="">
        <dc:format>image/svg+xml</dc:format>
        <dc:type
           rdf:resource="http://purl.org/dc/dcmitype/StillImage" />
        <dc:title></dc:title>
      </cc:Work>
    </rdf:RDF>
  </metadata>
  <defs
     id="defs4697" />
  <path
     id="path6462-0"
     d="m 2,2 a 1,1 0 1 0 0,2 H 18 a 1,1 0 1 0 0,-2 z" />
  <path
     id="path4069-9"
     d="M 15.5,7 A 0.5,0.5 0 0 0 15,7.5 V 15.7 L 9.9,7.2 A 0.5,0.5 0 0 0 9,7.5 V 17.5 a 0.5,0.5 0 1 0 1,0 V 9.3 L 15.1,17.8 A 0.5,0.5 0 0 0 16,17.5 V 7.5 A 0.5,0.5 0 0 0 15.5,7 Z" />
</svg>
