<?xml version="1.0" encoding="UTF-8" standalone="no"?>
<svg
   xmlns:dc="http://purl.org/dc/elements/1.1/"
   xmlns:cc="http://creativecommons.org/ns#"
   xmlns:rdf="http://www.w3.org/1999/02/22-rdf-syntax-ns#"
   xmlns:svg="http://www.w3.org/2000/svg"
   xmlns="http://www.w3.org/2000/svg"
   id="svg4693"
   version="1.1"
   width="20"
   height="20"
   viewBox="0 0 20 20">
  <metadata
     id="metadata4699">
    <rdf:RDF>
      <cc:Work
         rdf:about="">
        <dc:format>image/svg+xml</dc:format>
        <dc:type
           rdf:resource="http://purl.org/dc/dcmitype/StillImage" />
        <dc:title></dc:title>
      </cc:Work>
    </rdf:RDF>
  </metadata>
  <defs
     id="defs4697" />
  <path
     id="path6462-0"
     d="m 2,2 a 1,1 0 1 0 0,2 H 18 a 1,1 0 1 0 0,-2 z" />
  <path
     id="path1038-9"
     d="m 12.5,6.9 c -0.8,0 -1.7,0.3 -2.4,0.8 -0.7,0.5 -1.2,1.3 -1.2,2.3 0,1.1 0.8,1.8 1.5,2.2 0.3,0.2 0.4,0.2 0.6,0.3 -0.2,0.1 -0.3,0.1 -0.5,0.2 -0.9,0.5 -1.6,1.4 -1.6,2.5 0,0.9 0.5,1.6 1.1,2.1 0.6,0.5 1.5,0.7 2.3,0.8 a 0.5,0.5 0 0 0 0,0 c 0.9,0 1.7,-0.3 2.4,-0.7 0.7,-0.5 1.2,-1.2 1.2,-2.1 0,-1.1 -0.7,-1.9 -1.3,-2.5 -0.1,-0.1 -0.2,-0.1 -0.3,-0.2 0.3,-0.2 0.6,-0.4 0.9,-0.7 0.5,-0.6 0.8,-1.3 0.8,-2 0,-0.8 -0.5,-1.6 -1.1,-2.1 C 14.2,7.3 13.4,6.9 12.5,6.9 Z m 0,1 c 0.6,0 1.3,0.2 1.7,0.6 0.5,0.4 0.8,0.8 0.8,1.3 0,0.4 -0.2,0.9 -0.6,1.3 -0.4,0.4 -0.8,0.7 -1.2,0.7 a 0.5,0.5 0 0 0 -0.3,0.1 c -0.1,0 -0.3,0.1 -0.5,0.1 A 0.5,0.5 0 0 0 12.1,11.9 c 0,0 -0.5,-0.2 -1.1,-0.5 C 10.5,11 10,10.5 10,10 10,9.4 10.3,8.9 10.8,8.5 11.2,8.2 11.9,7.9 12.5,7.9 Z m 0.6,4.9 c 0.1,0 0.5,0.2 0.9,0.6 0.5,0.4 1,1 1,1.7 0,0.4 -0.3,0.9 -0.7,1.2 C 13.8,16.8 13.1,17 12.5,17 11.9,17 11.2,16.8 10.7,16.4 10.3,16.1 10,15.7 10,15.2 10,14.5 10.5,13.9 11.2,13.5 c 0.6,-0.4 1.5,-0.6 2,-0.6 z" />
</svg>
