<?xml version="1.0" encoding="UTF-8" standalone="no"?>
<svg
   xmlns:dc="http://purl.org/dc/elements/1.1/"
   xmlns:cc="http://creativecommons.org/ns#"
   xmlns:rdf="http://www.w3.org/1999/02/22-rdf-syntax-ns#"
   xmlns:svg="http://www.w3.org/2000/svg"
   xmlns="http://www.w3.org/2000/svg"
   id="svg4693"
   version="1.1"
   width="20"
   height="20"
   viewBox="0 0 20 20">
  <metadata
     id="metadata4699">
    <rdf:RDF>
      <cc:Work
         rdf:about="">
        <dc:format>image/svg+xml</dc:format>
        <dc:type
           rdf:resource="http://purl.org/dc/dcmitype/StillImage" />
        <dc:title></dc:title>
      </cc:Work>
    </rdf:RDF>
  </metadata>
  <defs
     id="defs4697" />
  <path
     id="path1087-7"
     d="m 7,7.5 a 0.5,0.5 0 1 0 0,1 h 6 a 0.5,0.5 0 1 0 0,-1 z" />
  <path
     id="path1089-2"
     d="M 10,8 A 0.5,0.5 0 0 0 9.5,8.5 V 14 a 0.5,0.5 0 1 0 1,0 V 8.5 A 0.5,0.5 0 0 0 10,8 Z" />
  <path
     id="path3513-4"
     d="m 10,1.5 a 0.5,0.5 0 0 0 -0.4,0.2 0.5,0.5 0 0 0 0,0 l -7.9,7.9 a 0.5,0.5 0 0 0 0,0.7 l 8,8 a 0.5,0.5 0 0 0 0.7,0 l 7.5,-8 a 0.5,0.5 0 0 0 0,-0.7 l -7.4,-7.9 0,0 a 0.5,0.5 0 0 0 -0.3,-0.2 0.5,0.5 0 0 0 0,0 0.5,0.5 0 0 0 -0.1,0 0.5,0.5 0 0 0 0,0 z M 10,2.7 16.8,10 10,17.3 2.7,10 Z" />
</svg>
