<?xml version="1.0" encoding="UTF-8" standalone="no"?>
<svg
   xmlns:dc="http://purl.org/dc/elements/1.1/"
   xmlns:cc="http://creativecommons.org/ns#"
   xmlns:rdf="http://www.w3.org/1999/02/22-rdf-syntax-ns#"
   xmlns:svg="http://www.w3.org/2000/svg"
   xmlns="http://www.w3.org/2000/svg"
   viewBox="0 0 20 20"
   height="20"
   width="20"
   version="1.1"
   id="svg4693">
  <metadata
     id="metadata4699">
    <rdf:RDF>
      <cc:Work
         rdf:about="">
        <dc:format>image/svg+xml</dc:format>
        <dc:type
           rdf:resource="http://purl.org/dc/dcmitype/StillImage" />
        <dc:title></dc:title>
      </cc:Work>
    </rdf:RDF>
  </metadata>
  <defs
     id="defs4697" />
  <path
     id="rect1728-9"
     d="m 9.6,9.1 a 0.5,0.5 0 0 1 -0.5,-0.5 v -2 a 0.5,0.5 0 0 1 0.5,-0.5 h 9 a 0.5,0.5 0 0 1 0.5,0.5 v 2 a 0.5,0.5 0 0 1 -0.5,0.5 z m 0.5,-1 h 8 v -1 H 10.1 Z" />
  <path
     id="rect1730-1"
     d="m 7.6,4.1 a 0.5,0.5 0 0 1 -0.5,-0.5 v -2 a 0.5,0.5 0 0 1 0.5,-0.5 H 18.6 a 0.5,0.5 0 0 1 0.5,0.5 v 2 a 0.5,0.5 0 0 1 -0.5,0.5 z m 0.5,-1 h 10 v -1 H 8.1 Z" />
  <path
     id="rect1724-3-2"
     d="m 1.6,14.1 c -0.3,0 -0.5,-0.2 -0.5,-0.5 v -2 c 0,-0.3 0.2,-0.5 0.5,-0.5 H 18.6 c 0.3,0 0.5,0.2 0.5,0.5 v 2 c 0,0.3 -0.2,0.5 -0.5,0.5 z" />
  <path
     id="rect1726-6-7"
     d="m 9.6,19.1 a 0.5,0.5 0 0 1 -0.5,-0.5 v -2 a 0.5,0.5 0 0 1 0.5,-0.5 H 18.6 A 0.5,0.5 0 0 1 19.1,16.6 v 2 a 0.5,0.5 0 0 1 -0.5,0.5 z M 10.1,18.1 h 8 V 17.1 H 10.1 Z" />
  <path
     id="path2411-3"
     d="m 3.6,2.1 v 6.5 h 1 v -6.5 z" />
  <path
     id="path2413-6"
     d="M 1.5,5.7 0.8,6.4 4.1,9.8 7.5,6.4 6.8,5.7 4.1,8.3 Z" />
</svg>
