<?xml version="1.0" encoding="UTF-8" standalone="no"?>
<svg
   xmlns:dc="http://purl.org/dc/elements/1.1/"
   xmlns:cc="http://creativecommons.org/ns#"
   xmlns:rdf="http://www.w3.org/1999/02/22-rdf-syntax-ns#"
   xmlns:svg="http://www.w3.org/2000/svg"
   xmlns="http://www.w3.org/2000/svg"
   viewBox="0 0 20 20"
   height="20"
   width="20"
   version="1.1"
   id="svg4693">
  <metadata
     id="metadata4699">
    <rdf:RDF>
      <cc:Work
         rdf:about="">
        <dc:format>image/svg+xml</dc:format>
        <dc:type
           rdf:resource="http://purl.org/dc/dcmitype/StillImage" />
        <dc:title></dc:title>
      </cc:Work>
    </rdf:RDF>
  </metadata>
  <defs
     id="defs4697" />
  <path
     id="rect1724"
     d="M 1.6,18.9 A 0.5,0.5 0 0 1 1.1,18.4 v -2 a 0.5,0.5 0 0 1 0.5,-0.5 H 18.6 a 0.5,0.5 0 0 1 0.5,0.5 v 2 a 0.5,0.5 0 0 1 -0.5,0.5 z m 0.5,-1 H 18.1 V 16.9 H 2.1 Z" />
  <path
     id="rect1726"
     d="M 9.6,13.9 A 0.5,0.5 0 0 1 9.1,13.4 v -2 a 0.5,0.5 0 0 1 0.5,-0.5 h 9 a 0.5,0.5 0 0 1 0.5,0.5 v 2 a 0.5,0.5 0 0 1 -0.5,0.5 z M 10.1,12.9 H 18.1 v -1 h -8 z" />
  <path
     id="rect1728"
     d="M 9.6,8.9 A 0.5,0.5 0 0 1 9.1,8.4 v -2 a 0.5,0.5 0 0 1 0.5,-0.5 h 9 a 0.5,0.5 0 0 1 0.5,0.5 v 2 a 0.5,0.5 0 0 1 -0.5,0.5 z M 10.1,7.9 H 18.1 v -1 h -8 z" />
  <path
     id="rect1730"
     d="M 9.6,3.9 A 0.5,0.5 0 0 1 9.1,3.4 v -2 A 0.5,0.5 0 0 1 9.6,0.9 h 9 a 0.5,0.5 0 0 1 0.5,0.5 v 2 a 0.5,0.5 0 0 1 -0.5,0.5 z M 10.1,2.9 H 18.1 v -1 h -8 z" />
  <path
     id="rect1724-3"
     d="M 1.6,18.9 C 1.3,18.9 1.1,18.7 1.1,18.4 v -2 c 0,-0.3 0.2,-0.5 0.5,-0.5 H 18.6 c 0.3,0 0.5,0.2 0.5,0.5 v 2 c 0,0.3 -0.2,0.5 -0.5,0.5 z" />
  <path
     id="rect1726-6"
     d="M 9.6,13.9 A 0.5,0.5 0 0 1 9.1,13.4 v -2 a 0.5,0.5 0 0 1 0.5,-0.5 h 9 a 0.5,0.5 0 0 1 0.5,0.5 v 2 a 0.5,0.5 0 0 1 -0.5,0.5 z M 10.1,12.9 H 18.1 v -1 h -8 z" />
  <path
     id="rect1728-7"
     d="M 9.6,8.9 A 0.5,0.5 0 0 1 9.1,8.4 v -2 a 0.5,0.5 0 0 1 0.5,-0.5 h 9 a 0.5,0.5 0 0 1 0.5,0.5 v 2 a 0.5,0.5 0 0 1 -0.5,0.5 z M 10.1,7.9 H 18.1 v -1 h -8 z" />
  <path
     id="rect1730-5"
     d="M 9.6,3.9 A 0.5,0.5 0 0 1 9.1,3.4 v -2 A 0.5,0.5 0 0 1 9.6,0.9 h 9 a 0.5,0.5 0 0 1 0.5,0.5 v 2 a 0.5,0.5 0 0 1 -0.5,0.5 z M 10.1,2.9 H 18.1 v -1 h -8 z" />
  <path
     id="path2411"
     d="M 3.6,12.9 V 1.9 h 1 V 12.9 Z" />
  <path
     id="path2413"
     d="M 4.1,13.6 0.7,10.3 1.4,9.6 4.1,12.2 6.7,9.6 7.4,10.3 Z" />
</svg>
