<?xml version="1.0" encoding="UTF-8" standalone="no"?>
<svg
   xmlns:dc="http://purl.org/dc/elements/1.1/"
   xmlns:cc="http://creativecommons.org/ns#"
   xmlns:rdf="http://www.w3.org/1999/02/22-rdf-syntax-ns#"
   xmlns:svg="http://www.w3.org/2000/svg"
   xmlns="http://www.w3.org/2000/svg"
   id="svg4693"
   version="1.1"
   width="20"
   height="20"
   viewBox="0 0 20 20">
  <metadata
     id="metadata4699">
    <rdf:RDF>
      <cc:Work
         rdf:about="">
        <dc:format>image/svg+xml</dc:format>
        <dc:type
           rdf:resource="http://purl.org/dc/dcmitype/StillImage" />
        <dc:title></dc:title>
      </cc:Work>
    </rdf:RDF>
  </metadata>
  <defs
     id="defs4697" />
  <path
     id="path4233-8"
     d="M 8.5,2 A 0.5,0.5 0 0 0 8.2,2.2 L 1.4,7.6 a 0.5,0.5 0 0 0 0,0.8 l 6.8,5.4 a 0.5,0.5 0 0 0 0,0 0.5,0.5 0 0 0 0.5,0.1 0.5,0.5 0 0 0 0.1,0 0.5,0.5 0 0 0 0,0 0.5,0.5 0 0 0 0,0 0.5,0.5 0 0 0 0,0 0.5,0.5 0 0 0 0.1,-0.1 0.5,0.5 0 0 0 0,0 0.5,0.5 0 0 0 0,0 0.5,0.5 0 0 0 0.1,-0.4 v -2.2 c 0.3,0 1.1,-0.2 2.3,-0.2 0.7,0 1.5,0 2.1,0.1 0.6,0.1 1.1,0.3 1.3,0.5 0.2,0.2 0.3,0.6 0.2,1.2 0,0.6 -0.2,1.3 -0.4,1.9 -0.4,1.3 -1.1,2.5 -1.1,2.5 a 0.5,0.5 0 0 0 0.8,0.6 c 0,0 1,-1 2.1,-2.4 1,-1.4 2.1,-3.1 2.1,-4.7 0,-1.5 -0.4,-2.5 -1.1,-3.4 C 16.9,6.5 16,6 15,5.5 14,5 12.4,4.8 11,4.8 9.9,4.7 9.4,4.8 9,4.8 V 2.5 a 0.5,0.5 0 0 0 -0.5,-0.5 z M 8,3.6 v 1.7 a 0.5,0.5 0 0 0 0.5,0.5 c 0,0 1.1,-0.1 2.4,0 1.3,0.1 2.9,0.3 3.6,0.6 0.9,0.4 1.6,0.9 2.1,1.6 0.5,0.6 0.8,1.5 0.8,2.8 0,1.1 -0.9,2.8 -1.9,4.1 0,0 0,0 0,0 0.2,-0.7 0.4,-1.3 0.4,-2 0,-0.7 0,-1.4 -0.5,-1.9 -0.5,-0.5 -1.1,-0.7 -1.9,-0.8 -0.7,-0.1 -1.5,-0.2 -2.3,-0.2 -1.5,0 -2.9,0.2 -2.9,0.2 a 0.5,0.5 0 0 0 -0.4,0.5 v 1.7 L 2.5,8 Z" />
</svg>
