<?xml version="1.0" encoding="UTF-8" standalone="no"?>
<svg
   xmlns:dc="http://purl.org/dc/elements/1.1/"
   xmlns:cc="http://creativecommons.org/ns#"
   xmlns:rdf="http://www.w3.org/1999/02/22-rdf-syntax-ns#"
   xmlns:svg="http://www.w3.org/2000/svg"
   xmlns="http://www.w3.org/2000/svg"
   id="svg4693"
   version="1.1"
   width="20"
   height="20"
   viewBox="0 0 20 20">
  <metadata
     id="metadata4699">
    <rdf:RDF>
      <cc:Work
         rdf:about="">
        <dc:format>image/svg+xml</dc:format>
        <dc:type
           rdf:resource="http://purl.org/dc/dcmitype/StillImage" />
        <dc:title></dc:title>
      </cc:Work>
    </rdf:RDF>
  </metadata>
  <defs
     id="defs4697" />
  <path
     id="path4122-7"
     d="m 2.5,9 a 0.5,0.5 0 0 0 -0.2,0.1 0.5,0.5 0 0 0 0,0 0.5,0.5 0 0 0 0,0 0.5,0.5 0 0 0 0,0 0.5,0.5 0 0 0 0,0 0.5,0.5 0 0 0 0,0 0.5,0.5 0 0 0 0,0 0.5,0.5 0 0 0 0,0 0.5,0.5 0 0 0 0,0 0.5,0.5 0 0 0 0,0 0.5,0.5 0 0 0 -0.1,0.4 v 8.9 a 0.5,0.5 0 0 0 0.5,0.5 l 14,0 a 0.5,0.5 0 0 0 0.5,-0.5 V 9.5 a 0.5,0.5 0 0 0 -0.5,-0.5 L 2.6,9 A 0.5,0.5 0 0 0 2.5,9 Z M 3,10 16,10 v 8 L 3,18 Z" />
  <path
     id="path4124-5"
     d="M 9.5,1 C 7.3,1 6.1,2.2 5.6,3.3 5,4.4 5,5.5 5,5.5 a 0.5,0.5 0 1 0 1,0 c 0,0 0,-0.9 0.4,-1.8 C 6.9,2.8 7.7,2 9.5,2 11.3,2 12.1,2.8 12.6,3.7 13,4.6 13,5.5 13,5.5 a 0.5,0.5 0 0 0 0,0 l 0,4 a 0.5,0.5 0 1 0 1,0 L 14,5.5 c 0,0 0,-1.1 -0.6,-2.2 C 12.9,2.2 11.7,1 9.5,1 Z" />
  <path
     id="path4126-6"
     d="m 9.2,12 c -0.2,0 -0.4,0 -0.5,0 -0.1,0 -0.1,0 -0.2,0 a 0.5,0.5 0 0 0 -0.4,0.1 0.5,0.5 0 0 0 0,0 0.5,0.5 0 0 0 0,0 0.5,0.5 0 0 0 0,0 0.5,0.5 0 0 0 -0.1,0.4 v 2.9 a 0.5,0.5 0 0 0 0.5,0.5 l 2,0 a 0.5,0.5 0 0 0 0.5,-0.5 l 0,-3 A 0.5,0.5 0 0 0 10.5,12 c -0.4,0 -0.9,0 -1.3,0 z m 0,1 c 0.2,0 0.5,0 0.8,0 l 0,2 -1,0 v -2 c 0.1,0 0.1,0 0.2,0 z" />
</svg>
