<?xml version="1.0" encoding="UTF-8" standalone="no"?>
<svg
   xmlns:dc="http://purl.org/dc/elements/1.1/"
   xmlns:cc="http://creativecommons.org/ns#"
   xmlns:rdf="http://www.w3.org/1999/02/22-rdf-syntax-ns#"
   xmlns:svg="http://www.w3.org/2000/svg"
   xmlns="http://www.w3.org/2000/svg"
   id="svg4693"
   version="1.1"
   width="20"
   height="20"
   viewBox="0 0 20 20">
  <metadata
     id="metadata4699">
    <rdf:RDF>
      <cc:Work
         rdf:about="">
        <dc:format>image/svg+xml</dc:format>
        <dc:type
           rdf:resource="http://purl.org/dc/dcmitype/StillImage" />
        <dc:title></dc:title>
      </cc:Work>
    </rdf:RDF>
  </metadata>
  <defs
     id="defs4697" />
  <path
     id="path3192-2"
     d="M 9.5,1 C 4.8,1 1,4.8 1,9.5 c 0,4.7 3.8,8.5 8.5,8.5 4.7,0 8.5,-3.8 8.5,-8.5 C 18,4.8 14.2,1 9.5,1 Z m 0,1 c 4.1,0 7.5,3.4 7.5,7.5 0,4.1 -3.4,7.5 -7.5,7.5 -4.1,0 -7.5,-3.4 -7.5,-7.5 0,-4.1 3.4,-7.5 7.5,-7.5 z" />
  <path
     id="path3211-2"
     d="m 15.2,14.6 a 0.5,0.5 0 0 0 -0.4,0.8 l 2.8,2.9 a 0.5,0.5 0 1 0 0.7,-0.7 l -2.8,-2.9 a 0.5,0.5 0 0 0 -0.4,-0.2 z" />
  <path
     id="path3033-4"
     d="m 4.5,6 a 0.5,0.5 0 0 0 -0.5,0.5 v 1.5 a 0.5,0.5 0 1 0 1,0 v -1 h 0.8 a 0.5,0.5 0 1 0 0,-1 z" />
  <path
     id="path3033-4-4"
     d="m 13.2,6 a 0.5,0.5 0 1 0 0,1 H 14 v 1 a 0.5,0.5 0 1 0 1,0 v -1.5 a 0.5,0.5 0 0 0 -0.5,-0.5 z" />
  <path
     id="path3033-4-8"
     d="M 4.5,10.7 A 0.5,0.5 0 0 0 4,11.2 v 1.3 a 0.5,0.5 0 0 0 0.5,0.5 H 6 a 0.5,0.5 0 1 0 0,-1 H 5 V 11.2 A 0.5,0.5 0 0 0 4.5,10.7 Z" />
  <path
     id="path3033-4-8-1"
     d="M 14.5,10.7 A 0.5,0.5 0 0 0 14,11.2 v 0.8 h -1 a 0.5,0.5 0 1 0 0,1 h 1.5 a 0.5,0.5 0 0 0 0.5,-0.5 v -1.3 a 0.5,0.5 0 0 0 -0.5,-0.5 z" />
  <path
     id="path6221"
     d="m 8,6 a 0.5,0.5 0 1 0 0,1 h 3 a 0.5,0.5 0 1 0 0,-1 z" />
  <path
     id="path6223"
     d="m 8,12 a 0.5,0.5 0 1 0 0,1 h 3 a 0.5,0.5 0 1 0 0,-1 z" />
</svg>
